<?xml version="1.0" encoding="utf-8"?>
<!-- Generator: Adobe Illustrator 22.0.1, SVG Export Plug-In . SVG Version: 6.00 Build 0)  -->
<svg version="1.1" id="Layer_1" xmlns="http://www.w3.org/2000/svg" xmlns:xlink="http://www.w3.org/1999/xlink" x="0px" y="0px"
	 viewBox="0 0 129 134" style="enable-background:new 0 0 129 134;" xml:space="preserve">
<style type="text/css">
	.st0{fill:url(#SVGID_1_);}
	.st1{fill:url(#SVGID_2_);}
	.st2{opacity:0.24;fill:url(#SVGID_3_);}
	.st3{fill:url(#SVGID_4_);}
	.st4{opacity:0.3;fill:url(#SVGID_5_);}
	.st5{opacity:0.21;fill:url(#SVGID_6_);}
</style>
<g>
	<linearGradient id="SVGID_1_" gradientUnits="userSpaceOnUse" x1="8.6863" y1="68.8074" x2="122.5656" y2="68.8074">
		<stop  offset="0" style="stop-color:#B07FB8"/>
		<stop  offset="0.5" style="stop-color:#8C3F97"/>
		<stop  offset="1" style="stop-color:#772D8F"/>
	</linearGradient>
	<circle class="st0" cx="65.6" cy="68.8" r="56.9"/>
	<linearGradient id="SVGID_2_" gradientUnits="userSpaceOnUse" x1="42.43" y1="47.7897" x2="91.7557" y2="47.7897">
		<stop  offset="0" style="stop-color:#E6CB9C"/>
		<stop  offset="0.5" style="stop-color:#DFBF86"/>
		<stop  offset="1" style="stop-color:#D1A044"/>
	</linearGradient>
	<path class="st1" d="M72,65.1h-9.8V40.4c0-1.4-0.5-2.5-1.5-3.5c-1-1-2.1-1.5-3.5-1.5c-1.4,0-2.5,0.5-3.5,1.5s-1.5,2.1-1.5,3.5v24.6
		h-9.8V30.5h9.8v4.9c0.2-1.7,0.7-2.9,1.5-3.7c0.8-0.8,2-1.2,3.4-1.2h4.9c3.3,0,5.8,1.2,7.4,3.5c0.8-1.2,1.8-2,3-2.6
		c1.2-0.6,2.7-0.9,4.4-0.9h4.9c2.7,0,5,1,7,2.9c1.9,1.9,2.9,4.3,2.9,7v24.6h-9.9V40.4c0-1.3-0.5-2.5-1.5-3.5c-1-1-2.1-1.5-3.4-1.5
		c-1.4,0-2.5,0.5-3.5,1.5S72,39.1,72,40.4V65.1z"/>
	<linearGradient id="SVGID_3_" gradientUnits="userSpaceOnUse" x1="65.6259" y1="68.8074" x2="122.5657" y2="68.8074">
		<stop  offset="0" style="stop-color:#FFFFFF"/>
		<stop  offset="0.1007" style="stop-color:#FFFFFF;stop-opacity:0"/>
		<stop  offset="0.2" style="stop-color:#FFFFFF"/>
		<stop  offset="0.3" style="stop-color:#FFFFFF;stop-opacity:0"/>
		<stop  offset="0.402" style="stop-color:#FFFFFF"/>
		<stop  offset="0.5" style="stop-color:#FFFFFF;stop-opacity:0"/>
		<stop  offset="0.6" style="stop-color:#FFFFFF"/>
		<stop  offset="0.7" style="stop-color:#FFFFFF;stop-opacity:0"/>
		<stop  offset="0.8" style="stop-color:#FFFFFF"/>
		<stop  offset="0.9" style="stop-color:#FFFFFF;stop-opacity:0"/>
		<stop  offset="1" style="stop-color:#FFFFFF"/>
	</linearGradient>
	<path class="st2" d="M122.6,68.8c0-31.4-25.5-56.9-56.9-56.9v113.9C97.1,125.7,122.6,100.3,122.6,68.8z"/>
	<linearGradient id="SVGID_4_" gradientUnits="userSpaceOnUse" x1="42.3344" y1="88.6672" x2="91.8513" y2="88.6672">
		<stop  offset="0" style="stop-color:#E6CB9C"/>
		<stop  offset="0.5" style="stop-color:#DFBF86"/>
		<stop  offset="1" style="stop-color:#D1A044"/>
	</linearGradient>
	<path class="st3" d="M62.2,71.3H72v24.7c0,1.4,0.5,2.5,1.5,3.5c1,1,2.1,1.5,3.5,1.5c1.4,0,2.5-0.5,3.5-1.5c1-1,1.5-2.1,1.5-3.5
		V71.3h9.9V106H82v-5c-0.2,1.7-0.7,2.9-1.5,3.7c-0.8,0.8-2,1.2-3.4,1.2h-5c-3.4,0-5.8-1.2-7.4-3.5c-0.8,1.2-1.8,2.1-3,2.6
		c-1.2,0.6-2.7,0.9-4.4,0.9h-4.9c-2.7,0-5-1-7-2.9c-2-1.9-2.9-4.3-2.9-7V71.3h9.9v24.7c0,1.3,0.5,2.5,1.5,3.5c1,1,2.1,1.5,3.5,1.5
		c1.4,0,2.5-0.5,3.5-1.5c1-1,1.5-2.1,1.5-3.5V71.3z"/>
	<linearGradient id="SVGID_5_" gradientUnits="userSpaceOnUse" x1="42.3344" y1="88.6672" x2="91.8513" y2="88.6672">
		<stop  offset="0" style="stop-color:#FFFFFF"/>
		<stop  offset="0.1007" style="stop-color:#FFFFFF;stop-opacity:0"/>
		<stop  offset="0.2" style="stop-color:#FFFFFF"/>
		<stop  offset="0.3" style="stop-color:#FFFFFF;stop-opacity:0"/>
		<stop  offset="0.402" style="stop-color:#FFFFFF"/>
		<stop  offset="0.5" style="stop-color:#FFFFFF;stop-opacity:0"/>
		<stop  offset="0.6" style="stop-color:#FFFFFF"/>
		<stop  offset="0.7" style="stop-color:#FFFFFF;stop-opacity:0"/>
		<stop  offset="0.8" style="stop-color:#FFFFFF"/>
		<stop  offset="0.9" style="stop-color:#FFFFFF;stop-opacity:0"/>
		<stop  offset="1" style="stop-color:#FFFFFF"/>
	</linearGradient>
	<path class="st4" d="M62.2,71.3H72v24.7c0,1.4,0.5,2.5,1.5,3.5c1,1,2.1,1.5,3.5,1.5c1.4,0,2.5-0.5,3.5-1.5c1-1,1.5-2.1,1.5-3.5
		V71.3h9.9V106H82v-5c-0.2,1.7-0.7,2.9-1.5,3.7c-0.8,0.8-2,1.2-3.4,1.2h-5c-3.4,0-5.8-1.2-7.4-3.5c-0.8,1.2-1.8,2.1-3,2.6
		c-1.2,0.6-2.7,0.9-4.4,0.9h-4.9c-2.7,0-5-1-7-2.9c-2-1.9-2.9-4.3-2.9-7V71.3h9.9v24.7c0,1.3,0.5,2.5,1.5,3.5c1,1,2.1,1.5,3.5,1.5
		c1.4,0,2.5-0.5,3.5-1.5c1-1,1.5-2.1,1.5-3.5V71.3z"/>
	<linearGradient id="SVGID_6_" gradientUnits="userSpaceOnUse" x1="42.43" y1="47.7897" x2="91.7557" y2="47.7897">
		<stop  offset="0" style="stop-color:#FFFFFF"/>
		<stop  offset="0.1007" style="stop-color:#FFFFFF;stop-opacity:0"/>
		<stop  offset="0.2" style="stop-color:#FFFFFF"/>
		<stop  offset="0.3" style="stop-color:#FFFFFF;stop-opacity:0"/>
		<stop  offset="0.402" style="stop-color:#FFFFFF"/>
		<stop  offset="0.5" style="stop-color:#FFFFFF;stop-opacity:0"/>
		<stop  offset="0.6" style="stop-color:#FFFFFF"/>
		<stop  offset="0.7" style="stop-color:#FFFFFF;stop-opacity:0"/>
		<stop  offset="0.8" style="stop-color:#FFFFFF"/>
		<stop  offset="0.9" style="stop-color:#FFFFFF;stop-opacity:0"/>
		<stop  offset="1" style="stop-color:#FFFFFF"/>
	</linearGradient>
	<path class="st5" d="M72,65.1h-9.8V40.4c0-1.4-0.5-2.5-1.5-3.5c-1-1-2.1-1.5-3.5-1.5c-1.4,0-2.5,0.5-3.5,1.5s-1.5,2.1-1.5,3.5v24.6
		h-9.8V30.5h9.8v4.9c0.2-1.7,0.7-2.9,1.5-3.7c0.8-0.8,2-1.2,3.4-1.2h4.9c3.3,0,5.8,1.2,7.4,3.5c0.8-1.2,1.8-2,3-2.6
		c1.2-0.6,2.7-0.9,4.4-0.9h4.9c2.7,0,5,1,7,2.9c1.9,1.9,2.9,4.3,2.9,7v24.6h-9.9V40.4c0-1.3-0.5-2.5-1.5-3.5c-1-1-2.1-1.5-3.4-1.5
		c-1.4,0-2.5,0.5-3.5,1.5S72,39.1,72,40.4V65.1z"/>
</g>
</svg>
